<svg xmlns="http://www.w3.org/2000/svg" xmlns:xlink="http://www.w3.org/1999/xlink" contentStyleType="text/css" data-diagram-type="STATE" height="606px" preserveAspectRatio="none" style="width:754px;height:606px;background:#FFFFFF;" version="1.1" viewBox="0 0 754 606" width="754px" zoomAndPan="magnify"><defs/><g><!--cluster State3--><g class="cluster" data-entity="State3" data-source-line="6" data-uid="ent0002" id="cluster_State3"><path d="M19.5,255 L409.5,255 A12.5,12.5 0 0 1 422,267.5 L422,276.2969 L7,276.2969 L7,267.5 A12.5,12.5 0 0 1 19.5,255" fill="#F1F1F1"/><rect fill="none" height="345.77" rx="12.5" ry="12.5" style="stroke:#181818;stroke-width:0.5;" width="415" x="7" y="255"/><line style="stroke:#181818;stroke-width:0.5;" x1="7" x2="422" y1="276.2969" y2="276.2969"/><text fill="#000000" font-family="sans-serif" font-size="14" lengthAdjust="spacing" textLength="45.9648" x="191.5176" y="271.9951">State3</text></g><g id="State3.long1"><rect fill="#F1F1F1" height="50.2656" rx="12.5" ry="12.5" style="stroke:#181818;stroke-width:0.5;" width="198.1719" x="30.91" y="399.5"/><line style="stroke:#181818;stroke-width:0.5;" x1="30.91" x2="229.0819" y1="425.7969" y2="425.7969"/><text fill="#000000" font-family="sans-serif" font-size="14" lengthAdjust="spacing" textLength="178.1719" x="40.91" y="417.4951">Accumulate Enough Data</text><text fill="#000000" font-family="sans-serif" font-size="12" lengthAdjust="spacing" textLength="60.1289" x="35.91" y="441.9355">Just a test</text></g><ellipse cx="130" cy="309" fill="#222222" rx="10" ry="10" style="stroke:#222222;stroke-width:1;"/><g id="State3.ProcessData"><rect fill="#F1F1F1" height="50" rx="12.5" ry="12.5" style="stroke:#181818;stroke-width:0.5;" width="107.0898" x="76.46" y="526.77"/><line style="stroke:#181818;stroke-width:0.5;" x1="76.46" x2="183.5498" y1="553.0669" y2="553.0669"/><text fill="#000000" font-family="sans-serif" font-size="14" lengthAdjust="spacing" textLength="87.0898" x="86.46" y="544.7651">ProcessData</text></g><ellipse cx="196" cy="309" fill="#F1F1F1" rx="11" ry="11" style="stroke:#181818;stroke-width:0.5;"/><text fill="#000000" font-family="sans-serif" font-size="14" lengthAdjust="spacing" textLength="10.5273" x="190.7363" y="313.8467">H</text><ellipse cx="290" cy="309" fill="#F1F1F1" rx="11" ry="11" style="stroke:#181818;stroke-width:0.5;"/><text fill="#000000" font-family="sans-serif" font-size="14" lengthAdjust="spacing" textLength="17.5273" x="281.2363" y="313.8467">H*</text><ellipse cx="577" cy="32" fill="#222222" rx="10" ry="10" style="stroke:#222222;stroke-width:1;"/><g id="State1"><rect fill="#F1F1F1" height="50" rx="12.5" ry="12.5" style="stroke:#181818;stroke-width:0.5;" width="65.9648" x="622.02" y="7"/><line style="stroke:#181818;stroke-width:0.5;" x1="622.02" x2="687.9848" y1="33.2969" y2="33.2969"/><text fill="#000000" font-family="sans-serif" font-size="14" lengthAdjust="spacing" textLength="45.9648" x="632.02" y="24.9951">State1</text></g><g id="State2"><rect fill="#F1F1F1" height="50" rx="12.5" ry="12.5" style="stroke:#181818;stroke-width:0.5;" width="65.9648" x="425.02" y="134"/><line style="stroke:#181818;stroke-width:0.5;" x1="425.02" x2="490.9848" y1="160.2969" y2="160.2969"/><text fill="#000000" font-family="sans-serif" font-size="14" lengthAdjust="spacing" textLength="45.9648" x="435.02" y="151.9951">State2</text></g><ellipse cx="566" cy="424.64" fill="none" rx="11" ry="11" style="stroke:#222222;stroke-width:1;"/><ellipse cx="566" cy="424.64" fill="#222222" rx="6" ry="6" style="stroke:#222222;stroke-width:1;"/><!--link *start* to State1--><g class="link" data-entity-1=".start." data-entity-2="State1" data-source-line="1" data-uid="lnk4" id="link_.start._State1"><path d="M587.36,32 C598.81,32 604.26,32 615.71,32" fill="none" id="*start*-to-State1" style="stroke:#181818;stroke-width:1;"/><polygon fill="#181818" points="621.71,32,612.71,28,616.71,32,612.71,36,621.71,32" style="stroke:#181818;stroke-width:1;"/></g><!--link State1 to State2--><g class="link" data-entity-1="State1" data-entity-2="State2" data-source-line="2" data-uid="lnk6" id="link_State1_State2"><path d="M621.58,54.21 C585.25,77.26 532.5865,110.6758 496.3165,133.6858" fill="none" id="State1-to-State2" style="stroke:#181818;stroke-width:1;"/><polygon fill="#181818" points="491.25,136.9,500.9925,135.4563,495.472,134.2215,496.7069,128.7011,491.25,136.9" style="stroke:#181818;stroke-width:1;"/><text fill="#000000" font-family="sans-serif" font-size="13" lengthAdjust="spacing" textLength="71.2842" x="569.29" y="100.0669">Succeeded</text></g><!--link State1 to *end*--><g class="link" data-entity-1="State1" data-entity-2=".end." data-source-line="3" data-uid="lnk8" id="link_State1_.end."><path d="M662.99,57.39 C678.27,107.67 708.16,226.21 685,322.5 C679.51,345.31 677.2,352.54 661,369.5 C635.96,395.72 601.0236,410.8582 582.0436,417.9182" fill="none" id="State1-to-*end*" style="stroke:#181818;stroke-width:1;"/><polygon fill="#181818" points="576.42,420.01,586.2499,420.6213,581.1063,418.2668,583.4608,413.1233,576.42,420.01" style="stroke:#181818;stroke-width:1;"/><text fill="#000000" font-family="sans-serif" font-size="13" lengthAdjust="spacing" textLength="51.7905" x="694.25" y="227.0669">Aborted</text></g><!--link State2 to State3--><g class="link" data-entity-1="State2" data-entity-2="State3" data-source-line="4" data-uid="lnk9" id="link_State2_State3"><path d="M463.93,184.38 C466.12,198.75 466.49,216.84 459,231 C452.01,244.2225 441.6169,255.6006 429.9189,265.2414 C428.4567,266.4465 426.974,267.6245 425.4751,268.7755 C424.7256,269.351 423.9721,269.9198 423.215,270.4818 C422.8365,270.7628 427.3026,267.5038 426.9223,267.7815" fill="none" id="State2-to-State3" style="stroke:#181818;stroke-width:1;"/><polygon fill="#181818" points="422.0768,271.3199,431.7041,269.2427,426.1147,268.3712,426.9862,262.7819,422.0768,271.3199" style="stroke:#181818;stroke-width:1;"/><text fill="#000000" font-family="sans-serif" font-size="13" lengthAdjust="spacing" textLength="71.2842" x="465.27" y="227.0669">Succeeded</text></g><!--link State3 to State2--><g class="link" data-entity-1="State3" data-entity-2="State2" data-source-line="14" data-uid="lnk18" id="link_State3_State2"><path d="M381.3131,254.7327 C381.4232,254.5738 381.5335,254.4149 381.6439,254.2558 C382.0855,253.6195 382.5291,252.9815 382.9747,252.3419 C384.757,249.7836 386.57,247.2006 388.4056,244.6081 C395.7481,234.2381 403.4525,223.715 411,214 C418.78,203.99 423.8516,197.8902 431.9116,188.7502" fill="none" id="State3-to-State2" style="stroke:#181818;stroke-width:1;"/><polygon fill="#181818" points="435.88,184.25,426.9272,188.3546,432.573,188.0001,432.9275,193.6459,435.88,184.25" style="stroke:#181818;stroke-width:1;"/><text fill="#000000" font-family="sans-serif" font-size="13" lengthAdjust="spacing" textLength="38.8159" x="412" y="227.0669">Pause</text></g><!--link State2 to *end*--><g class="link" data-entity-1="State2" data-entity-2=".end." data-source-line="5" data-uid="lnk10" id="link_State2_.end."><path d="M491.43,176.16 C508.73,185.6 529.42,198.66 545,214 C597.14,265.34 613.39,282.3 634,352.5 C643.58,385.13 602.6557,407.5571 581.5157,417.0271" fill="none" id="State2-to-*end*" style="stroke:#181818;stroke-width:1;"/><polygon fill="#181818" points="576.04,419.48,585.8888,419.4511,580.6031,417.4359,582.6183,412.1502,576.04,419.48" style="stroke:#181818;stroke-width:1;"/><text fill="#000000" font-family="sans-serif" font-size="13" lengthAdjust="spacing" textLength="51.7905" x="624.87" y="313.5669">Aborted</text></g><!--link *start*State3 to long1--><g class="link" data-entity-1=".start.State3" data-entity-2="long1" data-source-line="9" data-uid="lnk12" id="link_.start.State3_long1"><path d="M130,319.3 C130,336.58 130,368.16 130,393.18" fill="none" id="*start*State3-to-long1" style="stroke:#181818;stroke-width:1;"/><polygon fill="#181818" points="130,399.18,134,390.18,130,394.18,126,390.18,130,399.18" style="stroke:#181818;stroke-width:1;"/></g><!--link long1 to long1--><g class="link" data-entity-1="long1" data-entity-2="long1" data-source-line="10" data-uid="lnk13" id="link_long1_long1"><path d="M229.41,413.16 C249.62,414.41 264.09,418.24 264.09,424.64 C264.09,431.04 255.6086,434.4896 235.3986,435.7396" fill="none" id="long1-to-long1" style="stroke:#181818;stroke-width:1;"/><polygon fill="#181818" points="229.41,436.11,238.6398,439.5468,234.4005,435.8013,238.1459,431.562,229.41,436.11" style="stroke:#181818;stroke-width:1;"/><text fill="#000000" font-family="sans-serif" font-size="13" lengthAdjust="spacing" textLength="63.5273" x="270.09" y="429.2069">New Data</text></g><!--link long1 to ProcessData--><g class="link" data-entity-1="long1" data-entity-2="ProcessData" data-source-line="11" data-uid="lnk15" id="link_long1_ProcessData"><path d="M130,450.06 C130,472.11 130,498.38 130,520.41" fill="none" id="long1-to-ProcessData" style="stroke:#181818;stroke-width:1;"/><polygon fill="#181818" points="130,526.41,134,517.41,130,521.41,126,517.41,130,526.41" style="stroke:#181818;stroke-width:1;"/><text fill="#000000" font-family="sans-serif" font-size="13" lengthAdjust="spacing" textLength="84.3096" x="131" y="492.8369">Enough Data</text></g><!--link State2 to *historical*State3--><g class="link" data-entity-1="State2" data-entity-2=".historical.State3" data-source-line="12" data-uid="lnk17" id="link_State2_.historical.State3"><path d="M424.84,164.17 C369.48,171.72 261.5,189.23 233,214 C207.46,236.21 200.1427,272.4061 197.7227,291.8061" fill="none" id="State2-to-*historical*State3" style="stroke:#181818;stroke-width:1;"/><polygon fill="#181818" points="196.98,297.76,202.0633,289.3243,197.5989,292.7985,194.1248,288.3341,196.98,297.76" style="stroke:#181818;stroke-width:1;"/><text fill="#000000" font-family="sans-serif" font-size="13" lengthAdjust="spacing" textLength="52.7046" x="234" y="227.0669">Resume</text></g><!--link State2 to *deephistory*State3--><g class="link" data-entity-1="State2" data-entity-2=".deephistory.State3" data-source-line="15" data-uid="lnk20" id="link_State2_.deephistory.State3"><path d="M424.75,161.96 C389.15,165.95 333.78,177.97 304,214 C283.82,238.42 285.2799,273.1371 287.6499,291.9471" fill="none" id="State2-to-*deephistory*State3" style="stroke:#181818;stroke-width:1;"/><polygon fill="#181818" points="288.4,297.9,291.2435,288.4706,287.775,292.9392,283.3063,289.4706,288.4,297.9" style="stroke:#181818;stroke-width:1;"/><text fill="#000000" font-family="sans-serif" font-size="13" lengthAdjust="spacing" textLength="86.9629" x="305" y="227.0669">DeepResume</text></g><!--link State3 to State3--><g class="link" data-entity-1="State3" data-entity-2="State3" data-source-line="16" data-uid="lnk21" id="link_State3_State3"><path d="M405,308.4 C416.96,296.01 439.8,296.21 439.8,309 C439.8,321.8 421.1253,326.3186 409.1653,313.9186" fill="none" id="State3-to-State3" style="stroke:#181818;stroke-width:1;"/><polygon fill="#181818" points="405,309.6,408.3689,318.8547,408.4711,313.1988,414.127,313.301,405,309.6" style="stroke:#181818;stroke-width:1;"/><text fill="#000000" font-family="sans-serif" font-size="13" lengthAdjust="spacing" textLength="38.9175" x="445.8" y="313.5669">Failed</text></g><!--link State3 to *end*--><g class="link" data-entity-1="State3" data-entity-2=".end." data-source-line="17" data-uid="lnk22" id="link_State3_.end."><path d="M422.2923,346.113 C422.908,346.4186 423.5227,346.7242 424.1362,347.0297 C425.3631,347.6407 426.5851,348.2514 427.8005,348.861 C430.2313,350.0801 432.6356,351.295 435,352.5 C481.11,376.01 529.9032,403.2637 551.3332,415.3437" fill="none" id="State3-to-*end*" style="stroke:#181818;stroke-width:1;"/><polygon fill="#181818" points="556.56,418.29,550.684,410.386,552.2043,415.8347,546.7556,417.355,556.56,418.29" style="stroke:#181818;stroke-width:1;"/><text fill="#000000" font-family="sans-serif" font-size="13" lengthAdjust="spacing" textLength="160.7227" x="464.98" y="365.5669">Succeeded / Save Result</text></g><!--link State3 to *end*--><g class="link" data-entity-1="State3" data-entity-2=".end." data-source-line="18" data-uid="lnk23" id="link_State3_.end."><path d="M422.0122,398.0179 C422.2795,398.1296 422.547,398.2409 422.8146,398.3517 C423.35,398.5733 423.8861,398.793 424.4229,399.0107 C425.4965,399.4463 426.5729,399.8741 427.6518,400.2944 C429.8096,401.1351 431.9773,401.9457 434.1516,402.7272 C438.5004,404.2902 442.8762,405.7372 447.2547,407.0766 C456.0117,409.7554 464.7794,412.0041 473.3625,413.8912 C507.695,421.44 533.0767,423.0638 549.0117,423.4388" fill="none" id="State3-to-*end*-1" style="stroke:#181818;stroke-width:1;"/><polygon fill="#181818" points="555.01,423.58,546.1066,419.3694,550.0114,423.4624,545.9184,427.3672,555.01,423.58" style="stroke:#181818;stroke-width:1;"/><text fill="#000000" font-family="sans-serif" font-size="13" lengthAdjust="spacing" textLength="51.7905" x="375" y="365.5669">Aborted</text></g><!--SRC=[RP0n2uCm48LtVyNXA4YfRWu5mHRfKAIEuf36mnQY5fEqG-b_RwB6njefuRtttHsly4hmTv0B8d3hZ0_uHWaWWbnIYbXXPRk5mYA8BrqlZ15yiN2D1NymhWr3l1o0KN1ZIcKZcVxlsqxMLqY882uG3gnhwwrA3gyQTPHS0061N2XLZzThbgbPKVaJFeTX2pFhEugSQrr5h9KgPH-VbX6SaSi6dRSpdRseAYEIuxgD8lKKcI3U9_gNrNqTo8sPiaAhhBb7s41E7ZXSmCGwEBNw0G00]--></g></svg>